<svg width="20" height="20" viewBox="0 0 20 20" fill="none" xmlns="http://www.w3.org/2000/svg">
<path d="M9.05116 3.0061H2.78915C2.31463 3.0061 1.85956 3.1946 1.52403 3.53013C1.1885 3.86566 1 4.32074 1 4.79525V17.3193C1 17.7938 1.1885 18.2489 1.52403 18.5844C1.85956 18.9199 2.31463 19.1084 2.78915 19.1084H15.3132C15.7877 19.1084 16.2428 18.9199 16.5783 18.5844C16.9138 18.2489 17.1023 17.7938 17.1023 17.3193V11.0573" stroke="#042F2E" stroke-width="1.78915" stroke-linecap="round" stroke-linejoin="round"/>
<path d="M15.7606 1.66421C16.1165 1.30833 16.5991 1.1084 17.1024 1.1084C17.6057 1.1084 18.0884 1.30833 18.4443 1.66421C18.8002 2.0201 19.0001 2.50278 19.0001 3.00607C19.0001 3.50937 18.8002 3.99205 18.4443 4.34793L9.94584 12.8464L6.36755 13.7409L7.26213 10.1627L15.7606 1.66421Z" stroke="#042F2E" stroke-width="1.78915" stroke-linecap="round" stroke-linejoin="round"/>
</svg>
