<svg width="18" height="19" viewBox="0 0 18 19" fill="none" xmlns="http://www.w3.org/2000/svg">
<path d="M1.70288 4.70288H3.3786H16.7844" stroke="#450A0A" stroke-width="1.67572" stroke-linecap="round" stroke-linejoin="round"/>
<path d="M15.1087 4.70301V16.4331C15.1087 16.8775 14.9322 17.3037 14.6179 17.618C14.3037 17.9322 13.8774 18.1088 13.433 18.1088H5.05438C4.60996 18.1088 4.18373 17.9322 3.86947 17.618C3.55521 17.3037 3.37866 16.8775 3.37866 16.4331V4.70301M5.89225 4.70301V3.02729C5.89225 2.58286 6.0688 2.15663 6.38305 1.84237C6.69731 1.52811 7.12354 1.35156 7.56797 1.35156H10.9194C11.3638 1.35156 11.7901 1.52811 12.1043 1.84237C12.4186 2.15663 12.5951 2.58286 12.5951 3.02729V4.70301" stroke="#450A0A" stroke-width="1.67572" stroke-linecap="round" stroke-linejoin="round"/>
<path d="M7.56787 8.89209V13.9193" stroke="#450A0A" stroke-width="1.67572" stroke-linecap="round" stroke-linejoin="round"/>
<path d="M10.9194 8.89209V13.9193" stroke="#450A0A" stroke-width="1.67572" stroke-linecap="round" stroke-linejoin="round"/>
</svg>
