<svg width="44" height="44" viewBox="0 0 44 44" fill="none" xmlns="http://www.w3.org/2000/svg">
<path d="M18.4926 43.1918V43.6918H19.4424L18.9048 42.9088L18.4926 43.1918ZM18.3411 42.9894L17.9618 43.3152L17.9618 43.3152L18.3411 42.9894ZM18.1243 42.7741L18.4476 42.3926L18.4476 42.3926L18.1243 42.7741ZM17.7467 42.5078L17.4707 42.9247L17.4707 42.9247L17.7467 42.5078ZM13.1747 39.4803L12.8987 39.8972L12.8987 39.8972L13.1747 39.4803ZM11.3213 37.9342L11.7704 37.7145L11.7704 37.7145L11.3213 37.9342ZM11.1886 36.6037L11.6723 36.7306L11.6723 36.7306L11.1886 36.6037ZM12.7008 34.7265L12.3485 34.3718L12.3485 34.3718L12.7008 34.7265ZM13.0847 34.3453L12.7323 33.9905L13.0847 34.3453ZM13.8953 33.6381L14.141 34.0736L14.141 34.0736L13.8953 33.6381ZM14.5491 33.4103L14.4709 32.9165L14.4709 32.9165L14.5491 33.4103ZM15.6268 33.4595L15.572 33.9565L15.5993 33.9595H15.6268V33.4595ZM15.6269 33.4595L15.6817 32.9626L15.6544 32.9595H15.6269V33.4595ZM18.8402 33.8142L18.7853 34.3111L18.8127 34.3142H18.8402V33.8142ZM18.8402 33.8142L18.8951 33.3172L18.8677 33.3142H18.8402V33.8142ZM19.9179 33.8633L19.8397 33.3695L19.8397 33.3695L19.9179 33.8633ZM20.5717 33.6356L20.326 33.2001L20.326 33.2001L20.5717 33.6356ZM21.3824 32.9284L21.03 32.5737L21.03 32.5737L21.3824 32.9284ZM27.8839 26.4707L28.2363 26.8255L28.8137 26.2519L28.041 25.9961L27.8839 26.4707ZM16.1662 22.5912L16.009 23.0658L16.009 23.0658L16.1662 22.5912ZM13.4304 21.318L13.03 21.6174L13.03 21.6174L13.4304 21.318ZM13.077 19.831L13.5693 19.9187L13.5693 19.9187L13.077 19.831ZM14.9507 17.4771L14.5983 17.1223L14.5983 17.1223L14.9507 17.4771ZM15.6713 16.7614L16.0236 17.1161L16.0236 17.1161L15.6713 16.7614ZM16.6021 15.9618L16.8325 16.4055L16.8325 16.4055L16.6021 15.9618ZM17.3533 15.7478L17.3914 16.2463L17.3914 16.2463L17.3533 15.7478ZM18.5693 15.9358L18.681 15.4485L18.681 15.4485L18.5693 15.9358ZM33.0659 19.2587L33.1776 18.7713L33.1776 18.7713L33.0659 19.2587ZM34.2603 19.4452L34.2251 18.9465L34.2251 18.9465L34.2603 19.4452ZM35.0606 19.2103L35.3007 19.6488L35.3007 19.6488L35.0606 19.2103ZM35.961 18.4087L36.319 18.7577L36.319 18.7577L35.961 18.4087ZM41.228 13.0052L40.8699 12.6562L40.8699 12.6562L41.228 13.0052ZM43.1918 11.7835L43.3461 12.2591L43.6918 12.1469V11.7835H43.1918ZM43.1918 24.8424H43.6918L42.8314 24.4959L43.1918 24.8424ZM42.7845 25.2661L42.424 24.9196L42.424 24.9196L42.7845 25.2661ZM42.0191 26.1843L41.573 25.9586L41.5729 25.9587L42.0191 26.1843ZM41.817 26.9161L42.3157 26.9513L42.3157 26.9513L41.817 26.9161ZM42.0034 28.0936L41.5163 28.2068L41.5183 28.2149L42.0034 28.0936ZM42.0034 28.0937L42.4905 27.9805L42.4885 27.9724L42.0034 28.0937ZM43.1918 33.2087L42.7048 33.3218L43.6918 33.2087H43.1918ZM38.0762 43.1918V43.6918H38.7714L38.5503 43.0327L38.0762 43.1918ZM34.7551 33.2956L35.2291 33.1365L34.9733 32.3742L34.4028 32.9409L34.7551 33.2956ZM28.2536 39.7533L27.9012 39.3986L27.9012 39.3986L28.2536 39.7533ZM27.5416 40.5585L27.9757 40.8067L27.9757 40.8067L27.5416 40.5585ZM27.3123 41.2079L26.8186 41.1286L26.8186 41.1286L27.3123 41.2079ZM27.3618 42.2783L27.8587 42.2228L27.8587 42.2228L27.3618 42.2783ZM27.464 43.1918L26.9671 43.2474L27.0168 43.6918H27.464V43.1918ZM1.5 2.83802C1.5 2.09905 2.09905 1.5 2.83802 1.5V0.5C1.54677 0.5 0.5 1.54677 0.5 2.83802H1.5ZM1.5 41.3538V2.83802H0.5V41.3538H1.5ZM2.83802 42.6918C2.09905 42.6918 1.5 42.0927 1.5 41.3538H0.5C0.5 42.645 1.54677 43.6918 2.83802 43.6918V42.6918ZM18.4926 42.6918H2.83802V43.6918H18.4926V42.6918ZM18.9048 42.9088C18.8417 42.8169 18.786 42.7399 18.7203 42.6635L17.9618 43.3152C17.9925 43.3509 18.0244 43.3934 18.0804 43.4748L18.9048 42.9088ZM18.7203 42.6636C18.6367 42.5662 18.5455 42.4756 18.4476 42.3926L17.801 43.1555C17.8588 43.2045 17.9126 43.2579 17.9618 43.3152L18.7203 42.6636ZM18.4476 42.3926C18.3322 42.2948 18.2067 42.2127 18.0228 42.0909L17.4707 42.9247C17.6734 43.0589 17.7411 43.1047 17.801 43.1555L18.4476 42.3926ZM18.0228 42.0909L13.4508 39.0635L12.8987 39.8972L17.4707 42.9247L18.0228 42.0909ZM13.4508 39.0635C12.9024 38.7003 12.5183 38.4455 12.2401 38.2242C11.9651 38.0055 11.8383 37.8533 11.7704 37.7145L10.8721 38.1539C11.0349 38.4867 11.294 38.7494 11.6176 39.0068C11.938 39.2616 12.3653 39.544 12.8987 39.8972L13.4508 39.0635ZM11.7704 37.7145C11.6207 37.4084 11.5859 37.0596 11.6723 36.7306L10.705 36.4768C10.5578 37.0379 10.6171 37.6327 10.8721 38.1539L11.7704 37.7145ZM11.6723 36.7306C11.7114 36.5815 11.8054 36.4079 12.0318 36.14C12.2609 35.8689 12.5871 35.5442 13.0532 35.0813L12.3485 34.3718C11.8952 34.822 11.5319 35.1822 11.268 35.4946C11.0013 35.8101 10.799 36.1185 10.705 36.4768L11.6723 36.7306ZM13.0532 35.0813L13.437 34.7L12.7323 33.9905L12.3485 34.3718L13.0532 35.0813ZM13.437 34.7C13.8447 34.295 13.985 34.1616 14.141 34.0736L13.6496 33.2027C13.3486 33.3725 13.1008 33.6246 12.7323 33.9905L13.437 34.7ZM14.141 34.0736C14.2915 33.9887 14.4562 33.9313 14.6273 33.9042L14.4709 32.9165C14.1822 32.9622 13.904 33.0591 13.6496 33.2027L14.141 34.0736ZM14.6273 33.9042C14.805 33.876 14.9991 33.8933 15.572 33.9565L15.6817 32.9626C15.1637 32.9054 14.8123 32.8624 14.4709 32.9165L14.6273 33.9042ZM15.6268 33.9595H15.6269V32.9595H15.6268V33.9595ZM15.572 33.9565L18.7853 34.3111L18.895 33.3172L15.6817 32.9626L15.572 33.9565ZM18.8402 34.3142H18.8402V33.3142H18.8402V34.3142ZM18.7854 34.3111C19.3034 34.3683 19.6547 34.4113 19.9961 34.3572L19.8397 33.3695C19.662 33.3976 19.468 33.3804 18.8951 33.3172L18.7854 34.3111ZM19.9961 34.3572C20.2848 34.3115 20.563 34.2146 20.8174 34.071L20.326 33.2001C20.1756 33.285 20.0108 33.3424 19.8397 33.3695L19.9961 34.3572ZM20.8174 34.071C21.1185 33.9012 21.3663 33.6491 21.7347 33.2832L21.03 32.5737C20.6223 32.9786 20.482 33.1121 20.326 33.2001L20.8174 34.071ZM21.7347 33.2832L28.2363 26.8255L27.5315 26.116L21.03 32.5737L21.7347 33.2832ZM28.041 25.9961L16.3233 22.1165L16.009 23.0658L27.7267 26.9454L28.041 25.9961ZM16.3233 22.1165C15.5238 21.8518 14.957 21.6636 14.542 21.483C14.1262 21.302 13.9346 21.1573 13.8309 21.0187L13.03 21.6174C13.2913 21.9669 13.6772 22.1972 14.1429 22.3999C14.6095 22.603 15.228 22.8072 16.009 23.0658L16.3233 22.1165ZM13.8309 21.0187C13.5948 20.7028 13.5005 20.305 13.5693 19.9187L12.5848 19.7433C12.4674 20.4027 12.6287 21.0806 13.03 21.6174L13.8309 21.0187ZM13.5693 19.9187C13.5994 19.7496 13.7051 19.5358 13.9953 19.1894C14.285 18.8438 14.7071 18.4238 15.303 17.8318L14.5983 17.1223C14.0163 17.7005 13.5549 18.1581 13.2288 18.5472C12.9034 18.9355 12.6613 19.3137 12.5848 19.7433L13.5693 19.9187ZM15.303 17.8318L16.0236 17.1161L15.3189 16.4066L14.5983 17.1223L15.303 17.8318ZM16.0236 17.1161C16.4913 16.6516 16.6528 16.4988 16.8325 16.4055L16.3716 15.518C16.0243 15.6984 15.741 15.9874 15.3189 16.4066L16.0236 17.1161ZM16.8325 16.4055C17.0059 16.3154 17.1961 16.2612 17.3914 16.2463L17.3152 15.2492C16.9857 15.2744 16.6647 15.3658 16.3716 15.518L16.8325 16.4055ZM17.3914 16.2463C17.5942 16.2308 17.8133 16.2755 18.4576 16.4232L18.681 15.4485C18.0992 15.3151 17.7053 15.2194 17.3152 15.2492L17.3914 16.2463ZM18.4576 16.4232L32.9542 19.746L33.1776 18.7713L18.681 15.4485L18.4576 16.4232ZM32.9542 19.746C33.5259 19.8771 33.9128 19.971 34.2955 19.944L34.2251 18.9465C34.0262 18.9605 33.8107 18.9164 33.1776 18.7713L32.9542 19.746ZM34.2955 19.944C34.648 19.9191 34.991 19.8184 35.3007 19.6488L34.8205 18.7717C34.6373 18.872 34.4341 18.9317 34.2251 18.9465L34.2955 19.944ZM35.3007 19.6488C35.6373 19.4646 35.911 19.1763 36.319 18.7577L35.6029 18.0597C35.1508 18.5235 34.9946 18.6764 34.8205 18.7717L35.3007 19.6488ZM36.319 18.7577L41.586 13.3542L40.8699 12.6562L35.6029 18.0597L36.319 18.7577ZM41.586 13.3542C42.0933 12.8338 42.6995 12.4689 43.3461 12.2591L43.0375 11.3079C42.2407 11.5665 41.4935 12.0165 40.8699 12.6562L41.586 13.3542ZM42.6918 2.83802V11.7835H43.6918V2.83802H42.6918ZM41.3538 1.5C42.0927 1.5 42.6918 2.09905 42.6918 2.83802H43.6918C43.6918 1.54677 42.645 0.5 41.3538 0.5V1.5ZM2.83802 1.5H41.3538V0.5H2.83802V1.5ZM42.8314 24.4959L42.424 24.9196L43.1449 25.6127L43.5522 25.189L42.8314 24.4959ZM42.424 24.9196C42.0226 25.3371 41.7452 25.6182 41.573 25.9586L42.4653 26.41C42.5539 26.2349 42.6997 26.0757 43.1449 25.6127L42.424 24.9196ZM41.5729 25.9587C41.4275 26.2462 41.3409 26.5597 41.3182 26.8809L42.3157 26.9513C42.329 26.7629 42.3798 26.579 42.4653 26.41L41.5729 25.9587ZM41.3182 26.8809C41.2914 27.2615 41.3857 27.6445 41.5164 28.2068L42.4904 27.9805C42.3455 27.3565 42.302 27.1463 42.3157 26.9513L41.3182 26.8809ZM41.5183 28.2149L41.5183 28.215L42.4885 27.9724L42.4885 27.9724L41.5183 28.2149ZM41.5164 28.2068L42.7048 33.3218L43.6788 33.0955L42.4904 27.9805L41.5164 28.2068ZM42.6918 24.8424V33.2087H43.6918V24.8424H42.6918ZM38.5503 43.0327L35.2291 33.1365L34.2811 33.4547L37.6022 43.3509L38.5503 43.0327ZM34.4028 32.9409L27.9012 39.3986L28.6059 40.1081L35.1075 33.6503L34.4028 32.9409ZM27.9012 39.3986C27.5329 39.7643 27.2789 40.0107 27.1076 40.3103L27.9757 40.8067C28.064 40.6523 28.198 40.5132 28.6059 40.1081L27.9012 39.3986ZM27.1076 40.3103C26.9628 40.5635 26.8648 40.8407 26.8186 41.1286L27.806 41.2871C27.8331 41.1183 27.8905 40.9556 27.9757 40.8067L27.1076 40.3103ZM26.8186 41.1286C26.7639 41.4693 26.8074 41.8199 26.8649 42.3339L27.8587 42.2228C27.795 41.6531 27.7779 41.4619 27.806 41.2871L26.8186 41.1286ZM26.8649 42.3339L26.9671 43.2474L27.9609 43.1362L27.8587 42.2228L26.8649 42.3339ZM38.0762 42.6918H27.464V43.6918H38.0762V42.6918Z" fill="url(#paint0_linear_6_289)"/>
<defs>
<linearGradient id="paint0_linear_6_289" x1="22.0959" y1="1" x2="22.0959" y2="43.1918" gradientUnits="userSpaceOnUse">
<stop stop-color="#8CE3D6"/>
<stop offset="0.7" stop-color="#5EEAD4"/>
<stop offset="1" stop-color="#0D9488"/>
</linearGradient>
</defs>
</svg>
